<?xml version="1.0" encoding="iso-8859-1"?>
<!-- Generator: Adobe Illustrator 19.0.0, SVG Export Plug-In . SVG Version: 6.00 Build 0)  -->
<svg version="1.1" id="Capa_1" xmlns="http://www.w3.org/2000/svg" xmlns:xlink="http://www.w3.org/1999/xlink" x="0px" y="0px"
	 viewBox="0 0 512.006 512.006" style="enable-background:new 0 0 512.006 512.006;" xml:space="preserve">
<g>
	<g>
		<g>
			<path d="M256.003,192.003c-2,0-4.021-0.563-5.771-1.698l-43.721-28.107l17.346,102.69l0.125,119.115h53.354V266.67l0.185-1.043
				c0.016-0.164-0.104-0.303-0.081-0.467c0.029-0.202,0.215-0.326,0.255-0.523l16.888-95.422l-32.81,21.091
				C260.024,191.44,258.003,192.003,256.003,192.003z"/>
			<path d="M509.399,25.013c-2.021-2.333-4.979-3.677-8.063-3.677h-83.875c-11.229-3.083-81.146-21.333-161.458-21.333
				S105.774,18.253,94.545,21.336H10.67c-3.083,0-6.042,1.344-8.063,3.677c-2.021,2.333-2.938,5.438-2.5,8.5L21.44,182.847
				c0.333,2.281,1.396,4.396,3.021,6.031l18.458,18.448l10.438,187.917c0.146,2.792,1.396,5.417,3.479,7.302L174.17,509.232
				c1.958,1.781,4.521,2.771,7.167,2.771h149.292c2.646,0,5.208-0.99,7.167-2.771L455.17,402.545
				c2.083-1.885,3.333-4.51,3.479-7.302l10.438-187.917l18.458-18.448c1.625-1.635,2.688-3.75,3.021-6.031l21.333-149.333
				C512.336,30.451,511.42,27.347,509.399,25.013z M171.336,49.638c1.542-4.188,5.542-6.969,10-6.969H330.67
				c4.458,0,8.458,2.781,10,6.969c1.563,4.188,0.333,8.896-3.063,11.792l-74.667,64c-2,1.719-4.458,2.573-6.938,2.573
				c-2.479,0-4.938-0.854-6.938-2.573l-74.667-64C171.003,58.534,169.774,53.826,171.336,49.638z M46.669,104.336
				c-4.604-3.688-5.333-10.396-1.667-15c3.688-4.604,10.396-5.313,15-1.667l106.667,85.333c4.604,3.688,5.333,10.396,1.667,15
				c-2.104,2.625-5.208,4-8.333,4c-2.354,0-4.688-0.76-6.667-2.333L46.669,104.336z M66.128,153.607
				c3.563-4.729,10.271-5.635,14.938-2.135l85.333,64c4.708,3.531,5.667,10.219,2.146,14.927c-2.104,2.802-5.313,4.271-8.542,4.271
				c-2.229,0-4.479-0.698-6.396-2.135l-85.333-64C63.565,165.003,62.607,158.315,66.128,153.607z M326.503,490.67h-13.122
				l-21.315-42.667h-81.708l-14.216,42.667h-10.68l-9.07-8.247l16.154-48.461c1.458-4.354,5.542-7.292,10.125-7.292h96
				c4.042,0,7.729,2.281,9.542,5.906l25.663,51.393L326.503,490.67z M446.18,235.22l-30.177,17.964v34.819
				c0,3.563-1.792,6.896-4.75,8.875l-27.25,18.167V438.4l-21.333,19.393V315.93l-64.146-32.073l0.146,110.813
				c0,5.896-4.771,10.667-10.667,10.667h-74.667c-5.896,0-10.667-4.771-10.667-10.667V285.049l-53.333,30.475v142.294l-21.333-19.4
				V315.045l-27.25-18.167c-2.958-1.979-4.75-5.313-4.75-8.875v-34.451l-30.039-15.855l-1.383-24.861l41.871,22.1
				c0.772-0.018,1.535-0.21,2.301-0.059l91.625,18.326l-18.141-106.609l-81.339-52.289c-2.438-1.563-4.125-4.042-4.688-6.875
				l-8.952-44.76h8.743c0.979,0,1.979-0.135,2.938-0.406c0.152-0.043,3.612-1.005,9.499-2.453l7.793,38.995l139.771,89.854
				l139.771-89.854l7.793-38.995c5.887,1.448,9.346,2.41,9.499,2.453c0.958,0.271,1.958,0.406,2.938,0.406h8.744l-8.952,44.76
				c-0.563,2.833-2.25,5.313-4.688,6.875l-92.086,59.198l-17.823,99.93l102.221-18.586c0.54-0.105,1.047,0.074,1.581,0.055
				l42.608-25.365L446.18,235.22z M443.732,168.534l-85.333,64c-1.917,1.438-4.167,2.135-6.396,2.135
				c-3.229,0-6.438-1.469-8.542-4.271c-3.521-4.708-2.563-11.396,2.146-14.927l85.333-64c4.708-3.51,11.375-2.615,14.938,2.135
				C449.399,158.315,448.44,165.003,443.732,168.534z M465.336,104.336L358.669,189.67c-1.979,1.573-4.333,2.333-6.667,2.333
				c-3.125,0-6.229-1.375-8.333-4c-3.667-4.604-2.938-11.313,1.667-15L452.003,87.67c4.646-3.656,11.354-2.917,15,1.667
				C470.669,93.94,469.94,100.649,465.336,104.336z"/>
		</g>
	</g>
</g>
<g>
</g>
<g>
</g>
<g>
</g>
<g>
</g>
<g>
</g>
<g>
</g>
<g>
</g>
<g>
</g>
<g>
</g>
<g>
</g>
<g>
</g>
<g>
</g>
<g>
</g>
<g>
</g>
<g>
</g>
</svg>
